<?xml version="1.0" encoding="UTF-8"?>
<!DOCTYPE svg PUBLIC "-//W3C//DTD SVG 1.1//EN" "http://www.w3.org/Graphics/SVG/1.1/DTD/svg11.dtd">
<!-- Creator: CorelDRAW -->
<svg xmlns="http://www.w3.org/2000/svg" xml:space="preserve" width="5.7574in" height="4.32525in" version="1.1" style="shape-rendering:geometricPrecision; text-rendering:geometricPrecision; image-rendering:optimizeQuality; fill-rule:evenodd; clip-rule:evenodd"
viewBox="0 0 5088.84 3822.99"
 xmlns:xlink="http://www.w3.org/1999/xlink"
 xmlns:xodm="http://www.corel.com/coreldraw/odm/2003">
 <defs>
  <style type="text/css">
   <![CDATA[
    .fil0 {fill:#647A2F}
    .fil1 {fill:#647A2F;fill-rule:nonzero}
   ]]>
  </style>
 </defs>
 <g id="Layer_x0020_1">
  <metadata id="CorelCorpID_0Corel-Layer"/>
  <path class="fil0" d="M1187.6 920c370.41,-220.18 1620.76,84 1315.81,1218.21 16.14,26.43 25.01,41.57 25.2,41.88 14.55,24.82 6.23,56.74 -18.59,71.29 -24.82,14.55 -56.74,6.23 -71.29,-18.59 -0.09,-0.16 -2.64,-4.52 -7.42,-12.49 -565.51,139.61 -868.51,-127.32 -988.04,-463.24 -97.57,-274.2 -17.2,-352.52 -255.67,-837.06zm1186.01 1206.61c-37.26,-59.09 -88.67,-138.25 -149.37,-225.46 -75.04,2.05 -285.32,3.05 -486.23,-39.64 -28.2,-5.98 -46.22,-33.69 -40.24,-61.9 5.98,-28.2 33.69,-46.22 61.9,-40.24 145.33,30.88 295.9,37.62 390.65,38.21 -61.87,-84.45 -130.02,-171.78 -200.68,-252.63 -4.04,-3.39 -7.48,-7.33 -10.27,-11.66 -99.96,-113.09 -204.52,-212.38 -302.99,-271.4 -24.71,-14.78 -32.76,-46.79 -17.98,-71.5 14.78,-24.71 46.79,-32.76 71.5,-17.98 88.11,52.81 180.03,134.62 269.33,229.23 9.18,-47.04 15.65,-112.19 7.07,-190.03 -3.16,-28.66 17.51,-54.45 46.17,-57.61 28.65,-3.16 54.45,17.51 57.61,46.17 15.11,137.2 -11,244.01 -27.35,294.28 89.73,104.25 174.55,216.74 247.46,319.9 1.92,2.27 3.65,4.72 5.16,7.31 49.77,70.65 93.81,136.68 129.84,192.32 49.61,-256.73 8.55,-460.1 -84.22,-616.16 -58.13,-97.8 -136.81,-178.09 -226.21,-241.98 -91.31,-65.25 -193.91,-113.62 -297.66,-146.29 -181.96,-57.29 -362.76,-66.89 -488.02,-34.77 115.5,253.76 137.01,387.99 157.18,513.96 11.54,72.07 22.6,141.09 55.5,233.55 58.21,163.6 165.29,307.72 332.63,380 127.29,54.98 291.67,70.2 499.24,24.28zm-24.23 -1209.11c113.2,88.61 209.27,198.09 282.41,322.67 99.66,169.74 156.8,367.21 156.8,577.74 0,65.96 -5.67,130.91 -16.54,194.36 -5.37,31.33 -12.02,62.24 -19.89,92.65 143.46,-52.61 268.44,-144.51 361.71,-262.52 24.24,-30.67 46.33,-63.11 66.05,-97.1 1.24,-2.66 2.69,-5.19 4.34,-7.58 66.96,-118.32 105.25,-254.87 105.25,-400.04l0 -420.18 -940.11 0zm192.52 375.37c-92.95,-158.33 -226.68,-289.84 -386.75,-380.13 -17.99,-8.27 -30.49,-26.44 -30.49,-47.54 0,-28.88 23.41,-52.3 52.3,-52.3l1217.13 0 0 212.61 110.43 0c109.25,0 208.53,44.66 280.48,116.61 71.95,71.95 116.61,171.23 116.61,280.48 0,109.25 -44.66,208.53 -116.61,280.48 -71.95,71.95 -171.23,116.6 -280.48,116.6l-247.74 0c-18.75,30.28 -39.19,59.43 -61.21,87.28 -125.83,159.19 -303,276.25 -505.94,325.64 -10.48,3.36 -22.1,3.46 -33.28,-0.49 -27.19,-9.59 -41.46,-39.41 -31.86,-66.6 19.5,-54.92 34.51,-112.02 44.59,-170.81 9.8,-57.17 14.91,-116.24 14.91,-176.79 0,-191.79 -51.78,-371.22 -142.09,-525.04zm852.19 -162.76l0 207.57c0,134.21 -29.17,262.02 -81.5,377.4l191.93 0c80.38,0 153.5,-32.92 206.53,-85.96 53.04,-53.04 85.96,-126.15 85.96,-206.53 0,-80.38 -32.92,-153.5 -85.96,-206.53 -53.03,-53.04 -126.15,-85.96 -206.53,-85.96l-110.43 0zm-1242.56 -481.86c-9.47,27.19 -39.2,41.55 -66.39,32.07 -27.19,-9.48 -41.55,-39.2 -32.07,-66.39 44.44,-126.73 16.71,-203.34 -7.89,-271.28 -34.66,-95.71 -64.55,-178.29 35.71,-320.49 16.58,-23.58 49.15,-29.25 72.72,-12.67 23.58,16.58 29.25,49.15 12.67,72.72 -69.02,97.89 -47.72,156.71 -23.04,224.88 30.54,84.35 64.98,179.48 8.29,341.14zm325.33 0c-9.48,27.19 -39.2,41.55 -66.39,32.07 -27.19,-9.48 -41.55,-39.2 -32.07,-66.39 44.45,-126.73 16.71,-203.34 -7.89,-271.28 -34.66,-95.71 -64.55,-178.29 35.71,-320.49 16.58,-23.58 49.15,-29.25 72.72,-12.67 23.58,16.58 29.25,49.15 12.66,72.72 -69.02,97.89 -47.72,156.71 -23.04,224.88 30.54,84.35 64.99,179.48 8.29,341.14zm325.33 0c-9.47,27.19 -39.2,41.55 -66.39,32.07 -27.19,-9.48 -41.55,-39.2 -32.07,-66.39 44.44,-126.73 16.71,-203.34 -7.89,-271.28 -34.66,-95.71 -64.55,-178.29 35.71,-320.49 16.58,-23.58 49.15,-29.25 72.72,-12.67 23.58,16.58 29.25,49.15 12.67,72.72 -69.02,97.89 -47.72,156.71 -23.04,224.88 30.54,84.35 64.98,179.48 8.29,341.14zm195.65 1091.65l-0.96 1.42 0.34 0.39c0.38,-1.11 2.58,-4.82 0.62,-1.82zm-0.96 1.42c-16.01,22.98 -47.49,29.27 -71.15,13.89 -24.14,-15.68 -31,-47.97 -15.32,-72.11 5.15,-7.91 10.43,-12.59 17.94,-19.24 32.06,-28.42 143.72,-127.42 118.05,-589.86 -1.58,-28.77 20.46,-53.37 49.23,-54.95 28.77,-1.58 53.38,20.46 54.95,49.23 28.46,512.58 -112.67,637.69 -153.19,673.62 -0.24,0.21 -0.26,0.1 -0.16,-0.18l-0.34 -0.39z"/>
  <path class="fil1" d="M569.31 3796.45l-15.23 -122.12c-20.88,53.07 -49.88,91.16 -86.73,114.25 -36.61,22.85 -86.98,34.4 -151.36,34.4 -116.22,0 -197.8,-43.98 -244.97,-131.7 -47.42,-87.72 -71.01,-248.91 -71.01,-483.07 0,-109.34 5.65,-197.06 16.95,-262.91 11.3,-66.1 28.99,-116.96 52.83,-153.08 28.75,-43.99 67.08,-76.66 114.5,-97.79 47.42,-21.13 106.64,-31.7 177.15,-31.7 118.93,0 206.64,28.01 263.16,84.28 56.27,56.27 84.53,143.5 84.53,262.17l0 28.01 -193.13 0 0 -11.55c0,-66.1 -12.29,-116.22 -37.1,-150.13 -24.57,-33.66 -61.43,-50.61 -110.32,-50.61 -60.2,0 -100.99,23.1 -123.1,69.04 -22.11,46.19 -33.17,168.31 -33.17,366.35 0,156.52 10.56,261.19 31.7,314.02 21.13,52.83 59.22,79.12 114.25,79.12 54.79,0 93.62,-18.67 116.96,-56.27 23.34,-37.35 34.89,-100.74 34.89,-190.18l0 -38.08 -143 0 0 -176.91 342.03 0 0 604.45 -139.81 0zm483.07 -424.83l0 19.41c0,129.24 6.39,208.11 19.41,236.87 12.78,28.75 37.84,43.24 74.69,43.24 38.33,0 64.13,-13.52 77.4,-40.79 13.52,-27.03 20.15,-97.3 20.15,-211.07l0 -33.91 0 -47.42c0,-109.1 -6.88,-177.4 -20.39,-205.66 -13.76,-28.01 -38.82,-42.02 -75.68,-42.02 -36.36,0 -61.43,12.78 -75.19,38.58 -13.51,25.56 -20.39,87.47 -20.39,185.27l0 57.5zm-197.55 8.6c0,-167.82 21.62,-282.81 64.87,-345.22 43.25,-62.41 119.17,-93.61 228.27,-93.61 109.34,0 185.51,31.2 228.76,93.61 43.24,62.41 64.87,177.4 64.87,345.22 0,168.07 -21.62,283.06 -64.87,345.22 -43.25,62.16 -119.42,93.12 -228.76,93.12 -109.1,0 -185.02,-30.96 -228.27,-93.12 -43.24,-62.17 -64.87,-177.16 -64.87,-345.22zm1164.84 27.03l206.64 0 0 71.26c0,68.06 8.6,114.75 25.56,139.32 16.95,24.81 46.44,37.1 88.21,37.1 43.73,0 76.9,-11.06 99.76,-33.17 22.85,-22.11 34.15,-54.79 34.15,-97.79 0,-33.17 -7.86,-61.67 -23.83,-85.51 -15.73,-23.59 -50.13,-54.3 -102.95,-91.65l-105.65 -74.94c-91.4,-63.39 -149.39,-115.73 -174.21,-157.01 -24.82,-41.28 -37.1,-93.12 -37.1,-155.53 0,-93.12 27.52,-166.1 82.8,-218.93 55.28,-52.83 131.45,-79.12 228.27,-79.12 102.95,0 181.58,28.01 236.37,84.28 54.79,56.02 82.07,136.61 82.07,241.78 0,10.56 0,18.67 -0.25,24.32 -0.24,5.9 -0.73,10.81 -1.23,15.23l-196.07 0 0 -29.48c0,-60.2 -9.83,-103.2 -29.49,-129.24 -19.65,-25.8 -52.09,-38.82 -97.05,-38.82 -33.17,0 -58.97,9.83 -77.89,29.24 -18.92,19.41 -28.5,46.44 -28.5,81.09 0,46.68 42.51,98.28 127.27,155.04l2.21 1.23 113.76 77.15c81.09,53.81 135.88,104.43 164.63,152.34 28.75,47.67 43.24,108.36 43.24,182.32 0,100.74 -28.75,178.63 -86.49,233.18 -57.5,54.79 -139.81,82.07 -246.7,82.07 -111.31,0 -194.11,-28.75 -248.66,-86.24 -54.3,-57.5 -81.57,-145.46 -81.57,-263.4 0,-12.28 0.98,-32.93 2.7,-61.67l0 -4.42zm990.71 -35.63l0 19.41c0,129.24 6.39,208.11 19.41,236.87 12.78,28.75 37.84,43.24 74.69,43.24 38.33,0 64.13,-13.52 77.4,-40.79 13.52,-27.03 20.15,-97.3 20.15,-211.07l0 -33.91 0 -47.42c0,-109.1 -6.88,-177.4 -20.39,-205.66 -13.76,-28.01 -38.82,-42.02 -75.68,-42.02 -36.36,0 -61.43,12.78 -75.19,38.58 -13.51,25.56 -20.39,87.47 -20.39,185.27l0 57.5zm-197.55 8.6c0,-167.82 21.62,-282.81 64.87,-345.22 43.25,-62.41 119.17,-93.61 228.27,-93.61 109.34,0 185.51,31.2 228.76,93.61 43.24,62.41 64.87,177.4 64.87,345.22 0,168.07 -21.62,283.06 -64.87,345.22 -43.25,62.16 -119.42,93.12 -228.76,93.12 -109.1,0 -185.02,-30.96 -228.27,-93.12 -43.24,-62.17 -64.87,-177.16 -64.87,-345.22zm843.28 416.23l-178.38 -832.96 202.22 0 88.46 616.24 94.11 -616.24 157.74 0 111.8 624.84 79.86 -624.84 191.65 0 -160.69 832.96 -206.4 0 -93.86 -495.35 -75.68 495.35 -210.82 0zm1218.97 -436.38c-72.48,36.61 -121.63,69.29 -147.18,98.04 -25.8,28.75 -38.57,62.9 -38.57,102.22 0,36.85 6.88,64.13 20.64,81.57 13.51,17.45 35.14,26.29 64.38,26.29 33.66,0 58.72,-14.74 75.43,-43.98 16.95,-29.24 25.31,-73.22 25.31,-131.7l0 -132.44zm26.54 436.38c-4.18,-6.14 -7.86,-15.73 -11.06,-28.01 -3.19,-12.53 -6.39,-30.22 -9.83,-52.58 -19.9,33.42 -45.95,58.97 -77.89,76.42 -31.94,17.44 -69.29,26.29 -111.8,26.29 -63.39,0 -112.53,-21.38 -147.92,-64.13 -35.14,-42.51 -52.83,-101.97 -52.83,-177.65 0,-68.55 15.48,-123.1 46.44,-163.64 30.71,-40.54 92.14,-81.33 183.54,-122.12 9.09,-4.42 22.11,-10.07 38.82,-17.2 75.43,-32.19 113.02,-70.03 113.02,-113.27 0,-26.29 -7.12,-46.69 -21.87,-60.69 -14.5,-14.25 -35.63,-21.38 -63.39,-21.38 -34.89,0 -60.69,9.34 -77.15,28.01 -16.46,18.92 -24.81,48.16 -24.81,87.96l0 16.71 -187.23 0c0,-93.61 22.85,-161.68 68.8,-204.18 45.7,-42.76 119.17,-64.13 220.4,-64.13 101.23,0 172,19.66 212.78,58.73 40.79,39.07 61.18,107.38 61.18,205.17l0 470.05c0,23.1 2.21,44.23 6.39,63.15 4.42,18.92 11.55,37.84 21.62,56.51l-187.23 0z"/>
 </g>
</svg>
